<?xml version="1.0" standalone="no"?>
<!DOCTYPE svg PUBLIC "-//W3C//DTD SVG 20010904//EN"
 "http://www.w3.org/TR/2001/REC-SVG-20010904/DTD/svg10.dtd">
<svg version="1.0" xmlns="http://www.w3.org/2000/svg"
 width="64.000000pt" height="64.000000pt" viewBox="0 0 64.000000 64.000000"
 preserveAspectRatio="xMidYMid meet">

<g transform="translate(0.000000,64.000000) scale(0.100000,-0.100000)"
fill="#000000" stroke="none">
<path d="M240 591 c-19 -10 -48 -40 -65 -67 -26 -43 -30 -59 -33 -146 l-4 -98
43 -20 c86 -39 107 -20 52 45 -20 25 -45 48 -55 51 -20 6 -34 46 -23 64 6 9
10 9 16 -1 5 -9 10 -4 15 17 10 42 21 52 49 46 21 -4 25 0 26 19 l0 24 11 -22
c15 -31 68 -33 68 -3 0 11 5 20 10 20 6 0 10 -10 10 -21 0 -19 4 -21 40 -16
39 5 40 4 52 -34 6 -23 14 -35 18 -28 6 8 9 8 15 -1 11 -18 -3 -58 -23 -64
-10 -3 -35 -27 -56 -52 -47 -56 -39 -74 23 -55 67 20 73 32 69 135 -3 81 -6
96 -33 139 -50 80 -148 110 -225 68z"/>
<path d="M250 399 c0 -11 5 -17 10 -14 6 3 10 13 10 21 0 8 -4 14 -10 14 -5 0
-10 -9 -10 -21z"/>
<path d="M370 405 c0 -8 5 -15 10 -15 6 0 10 7 10 15 0 8 -4 15 -10 15 -5 0
-10 -7 -10 -15z"/>
<path d="M206 202 c-3 -6 -29 -16 -56 -23 -28 -7 -50 -18 -50 -25 0 -18 75
-81 116 -99 20 -8 47 -15 60 -15 22 0 24 4 24 51 0 42 -2 49 -14 40 -11 -9
-20 -2 -43 35 -17 25 -33 42 -37 36z"/>
<path d="M396 163 c-23 -35 -31 -41 -42 -32 -12 10 -14 3 -14 -40 0 -47 2 -51
24 -51 37 0 93 27 136 66 49 44 50 60 8 68 -18 3 -45 12 -59 20 -25 13 -27 11
-53 -31z"/>
</g>
</svg>
