<?xml version="1.0" standalone="no"?>
<!DOCTYPE svg PUBLIC "-//W3C//DTD SVG 20010904//EN"
 "http://www.w3.org/TR/2001/REC-SVG-20010904/DTD/svg10.dtd">
<svg version="1.0" xmlns="http://www.w3.org/2000/svg"
 width="64.000000pt" height="64.000000pt" viewBox="0 0 64.000000 64.000000"
 preserveAspectRatio="xMidYMid meet">

<g transform="translate(0.000000,64.000000) scale(0.100000,-0.100000)"
fill="#000000" stroke="none">
<path d="M335 498 c-38 -14 -105 -66 -105 -82 0 -7 -22 -31 -49 -54 -62 -53
-84 -98 -76 -156 8 -50 32 -77 84 -95 70 -23 139 -5 200 52 44 42 128 170 140
214 18 63 -29 133 -80 120 -10 -3 -19 -1 -19 4 0 12 -57 10 -95 -3z m119 -28
c14 -5 26 -17 26 -26 0 -25 -68 -148 -107 -193 -44 -52 -80 -71 -136 -71 -82
0 -124 64 -79 120 23 28 41 20 34 -15 -5 -28 12 -35 22 -9 4 9 9 14 13 10 12
-11 43 27 43 52 0 28 26 62 47 62 8 0 13 6 12 13 -4 35 3 47 34 56 43 12 61
13 91 1z m-227 -122 c-3 -8 -6 -5 -6 6 -1 11 2 17 5 13 3 -3 4 -12 1 -19z"/>
<path d="M272 278 c-18 -18 -14 -38 8 -38 20 0 44 32 33 44 -10 10 -28 7 -41
-6z"/>
<path d="M176 215 c-3 -8 -2 -15 3 -15 5 0 14 7 21 15 10 12 10 15 -3 15 -8 0
-17 -7 -21 -15z"/>
</g>
</svg>
